<svg width="210" height="292" viewBox="0 0 210 292" fill="none" xmlns="http://www.w3.org/2000/svg">
<path d="M47.3164 125L50.0942 125L52.872 125" stroke="#486078"/>
<path d="M50.0942 122.222V125V127.778" stroke="#486078"/>
<path d="M95.9277 195.139L98.7055 195.139L101.483 195.139" stroke="#486078"/>
<path d="M98.7056 192.361V195.139V197.916" stroke="#486078"/>
<path d="M109.816 153.472L112.594 153.472L115.372 153.472" stroke="#486078"/>
<path d="M112.594 150.694V153.472V156.25" stroke="#486078"/>
<path d="M88.9834 167.361L91.7612 167.361L94.539 167.361" stroke="#486078"/>
<path d="M91.7612 164.583V167.361V170.139" stroke="#486078"/>
<path d="M82.0386 181.25L84.8164 181.25L87.5941 181.25" stroke="#486078"/>
<path d="M84.8164 178.472V181.25V184.028" stroke="#486078"/>
<path d="M68.1499 160.417L70.9277 160.417L73.7055 160.417" stroke="#486078"/>
<path d="M70.9277 157.639V160.416V163.194" stroke="#486078"/>
<path d="M75.0942 139.583L77.872 139.583L80.6498 139.583" stroke="#486078"/>
<path d="M77.8721 136.806V139.583V142.361" stroke="#486078"/>
<path d="M88.2886 195.139L91.0664 195.139L93.8441 195.139" stroke="#486078"/>
<path d="M91.0664 192.361V195.139V197.917" stroke="#486078"/>
<path d="M136.9 265.278L139.678 265.278L142.455 265.278" stroke="#486078"/>
<path d="M139.678 262.5V265.278V268.056" stroke="#486078"/>
<path d="M150.789 223.611L153.566 223.611L156.344 223.611" stroke="#486078"/>
<path d="M153.566 220.833V223.611V226.389" stroke="#486078"/>
<path d="M129.955 237.5L132.733 237.5L135.511 237.5" stroke="#486078"/>
<path d="M132.733 234.722V237.5V240.278" stroke="#486078"/>
<path d="M123.011 251.389L125.789 251.389L128.566 251.389" stroke="#486078"/>
<path d="M125.789 248.611V251.389V254.167" stroke="#486078"/>
<path d="M109.122 230.556L111.9 230.556L114.678 230.556" stroke="#486078"/>
<path d="M111.9 227.778V230.556V233.333" stroke="#486078"/>
<path d="M116.066 209.722L118.844 209.722L121.622 209.722" stroke="#486078"/>
<path d="M118.844 206.944V209.722V212.5" stroke="#486078"/>
<path d="M128.566 84.7222L125.789 84.7222L123.011 84.7222" stroke="#486078"/>
<path d="M125.789 81.9443V84.7221V87.4999" stroke="#486078"/>
<path d="M79.9551 154.861L77.1773 154.861L74.3995 154.861" stroke="#486078"/>
<path d="M77.1772 152.083V154.861V157.639" stroke="#486078"/>
<path d="M66.0664 113.194L63.2886 113.194L60.5108 113.194" stroke="#486078"/>
<path d="M63.2886 110.417V113.194V115.972" stroke="#486078"/>
<path d="M86.8994 127.083L84.1216 127.083L81.3439 127.083" stroke="#486078"/>
<path d="M84.1216 124.305V127.083V129.861" stroke="#486078"/>
<path d="M93.8442 140.972L91.0665 140.972L88.2887 140.972" stroke="#486078"/>
<path d="M91.0664 138.194V140.972V143.75" stroke="#486078"/>
<path d="M107.733 120.139L104.955 120.139L102.177 120.139" stroke="#486078"/>
<path d="M104.955 117.361V120.139V122.916" stroke="#486078"/>
<path d="M100.789 99.3052L98.0108 99.3052L95.233 99.3052" stroke="#486078"/>
<path d="M98.0107 96.5278V99.3056V102.083" stroke="#486078"/>
<path d="M125.789 218.75L123.011 218.75L120.233 218.75" stroke="#486078"/>
<path d="M123.011 215.972V218.75V221.528" stroke="#486078"/>
<path d="M77.1772 288.889L74.3995 288.889L71.6217 288.889" stroke="#486078"/>
<path d="M74.3994 286.111V288.889V291.666" stroke="#486078"/>
<path d="M63.2886 247.222L60.5108 247.222L57.733 247.222" stroke="#486078"/>
<path d="M60.5107 244.444V247.222V250" stroke="#486078"/>
<path d="M84.1216 261.111L81.3438 261.111L78.566 261.111" stroke="#486078"/>
<path d="M81.3438 258.333V261.111V263.889" stroke="#486078"/>
<path d="M91.0664 275L88.2886 275L85.5108 275" stroke="#486078"/>
<path d="M88.2886 272.222V275V277.778" stroke="#486078"/>
<path d="M104.955 254.167L102.177 254.167L99.3995 254.167" stroke="#486078"/>
<path d="M102.177 251.389V254.166V256.944" stroke="#486078"/>
<path d="M98.0107 233.333L95.233 233.333L92.4552 233.333" stroke="#486078"/>
<path d="M95.2329 230.556V233.333V236.111" stroke="#486078"/>
<path d="M209.816 109.028L207.039 109.028L204.261 109.028" stroke="#486078"/>
<path d="M207.039 106.25V109.028V111.806" stroke="#486078"/>
<path d="M161.205 179.167L158.427 179.167L155.65 179.167" stroke="#486078"/>
<path d="M158.427 176.389V179.166V181.944" stroke="#486078"/>
<path d="M147.316 137.5L144.539 137.5L141.761 137.5" stroke="#486078"/>
<path d="M144.539 134.722V137.5V140.278" stroke="#486078"/>
<path d="M168.149 151.389L165.372 151.389L162.594 151.389" stroke="#486078"/>
<path d="M165.372 148.611V151.389V154.166" stroke="#486078"/>
<path d="M175.094 165.278L172.316 165.278L169.539 165.278" stroke="#486078"/>
<path d="M172.316 162.5V165.278V168.056" stroke="#486078"/>
<path d="M188.983 144.444L186.205 144.444L183.427 144.444" stroke="#486078"/>
<path d="M186.205 141.667V144.444V147.222" stroke="#486078"/>
<path d="M182.039 123.611L179.261 123.611L176.483 123.611" stroke="#486078"/>
<path d="M179.261 120.833V123.611V126.389" stroke="#486078"/>
<path d="M134.816 2.77783L132.039 2.77783L129.261 2.77783" stroke="#486078"/>
<path d="M132.039 0V2.77778V5.55556" stroke="#486078"/>
<path d="M86.2051 72.9165L83.4273 72.9165L80.6495 72.9165" stroke="#486078"/>
<path d="M83.4272 70.1387V72.9164V75.6942" stroke="#486078"/>
<path d="M72.3164 31.25L69.5386 31.25L66.7609 31.25" stroke="#486078"/>
<path d="M69.5386 28.4722V31.2499V34.0277" stroke="#486078"/>
<path d="M93.1494 45.1387L90.3716 45.1387L87.5939 45.1387" stroke="#486078"/>
<path d="M90.3716 42.3608V45.1386V47.9164" stroke="#486078"/>
<path d="M100.094 59.0278L97.3165 59.0278L94.5387 59.0278" stroke="#486078"/>
<path d="M97.3164 56.25V59.0278V61.8056" stroke="#486078"/>
<path d="M113.983 38.1943L111.205 38.1943L108.427 38.1943" stroke="#486078"/>
<path d="M111.205 35.4165V38.1943V40.9721" stroke="#486078"/>
<path d="M107.039 17.3608L104.261 17.3608L101.483 17.3608" stroke="#486078"/>
<path d="M104.261 14.5835V17.3613V20.139" stroke="#486078"/>
<path d="M193.15 219.444L190.372 219.444L187.594 219.444" stroke="#486078"/>
<path d="M190.372 222.222V219.444V216.667" stroke="#486078"/>
<path d="M144.539 149.306L141.761 149.306L138.983 149.306" stroke="#486078"/>
<path d="M141.761 152.083V149.306V146.528" stroke="#486078"/>
<path d="M130.65 190.972L127.872 190.972L125.094 190.972" stroke="#486078"/>
<path d="M127.872 193.75V190.972V188.194" stroke="#486078"/>
<path d="M151.483 177.083L148.705 177.083L145.927 177.083" stroke="#486078"/>
<path d="M148.705 179.861V177.084V174.306" stroke="#486078"/>
<path d="M158.428 163.194L155.65 163.194L152.872 163.194" stroke="#486078"/>
<path d="M155.65 165.972V163.194V160.417" stroke="#486078"/>
<path d="M172.316 184.028L169.539 184.028L166.761 184.028" stroke="#486078"/>
<path d="M169.539 186.806V184.028V181.25" stroke="#486078"/>
<path d="M165.372 204.861L162.594 204.861L159.817 204.861" stroke="#486078"/>
<path d="M162.594 207.639V204.861V202.083" stroke="#486078"/>
<path d="M3.56641 129.167L3.56641 126.389L3.56641 123.611" stroke="#486078"/>
<path d="M0.788574 126.389L3.56635 126.389L6.34413 126.389" stroke="#486078"/>
<path d="M73.7051 80.5557L73.7051 77.7779V75.0001" stroke="#486078"/>
<path d="M70.9272 77.7778L73.705 77.7778L76.4828 77.7778" stroke="#486078"/>
<path d="M32.0386 66.667L32.0386 63.8892L32.0386 61.1114" stroke="#486078"/>
<path d="M29.2607 63.8892L32.0385 63.8892L34.8163 63.8892" stroke="#486078"/>
<path d="M45.9272 87.5L45.9272 84.7222L45.9272 81.9444" stroke="#486078"/>
<path d="M43.1494 84.7222L45.9272 84.7222L48.705 84.7222" stroke="#486078"/>
<path d="M59.8164 94.4448L59.8164 91.6671L59.8164 88.8893" stroke="#486078"/>
<path d="M57.0386 91.667L59.8164 91.667L62.5941 91.667" stroke="#486078"/>
<path d="M38.9829 108.333L38.9829 105.556L38.9829 102.778" stroke="#486078"/>
<path d="M36.2051 105.556L38.9829 105.556L41.7606 105.556" stroke="#486078"/>
<path d="M18.1494 101.389L18.1494 98.6114L18.1494 95.8336" stroke="#486078"/>
<path d="M15.3721 98.6113L18.1498 98.6113L20.9276 98.6113" stroke="#486078"/>
<path d="M206.344 106.25L203.566 106.25L200.789 106.25" stroke="#486078"/>
<path d="M203.566 109.028V106.25V103.472" stroke="#486078"/>
<path d="M157.733 36.1113L154.955 36.1113L152.177 36.1113" stroke="#486078"/>
<path d="M154.955 38.8892V36.1114V33.3336" stroke="#486078"/>
<path d="M143.844 77.7778L141.066 77.7778L138.289 77.7778" stroke="#486078"/>
<path d="M141.066 80.5557V77.7779V75.0001" stroke="#486078"/>
<path d="M164.677 63.8892L161.899 63.8892L159.122 63.8892" stroke="#486078"/>
<path d="M161.899 66.667V63.8892V61.1114" stroke="#486078"/>
<path d="M171.622 50L168.844 50L166.067 50" stroke="#486078"/>
<path d="M168.844 52.7778V50.0001V47.2223" stroke="#486078"/>
<path d="M185.511 70.8335L182.733 70.8335L179.955 70.8335" stroke="#486078"/>
<path d="M182.733 73.6113V70.8335V68.0558" stroke="#486078"/>
<path d="M178.566 91.667L175.789 91.667L173.011 91.667" stroke="#486078"/>
<path d="M175.789 94.4443V91.6666V88.8888" stroke="#486078"/>
</svg>
