<svg width="302" height="303" viewBox="0 0 302 303" fill="none" xmlns="http://www.w3.org/2000/svg">
<path d="M299.222 64.5555V66.7778V69" stroke="#486078"/>
<path d="M301.444 66.7777L299.222 66.7777L296.999 66.7777" stroke="#486078"/>
<path d="M243.111 103.444V105.667V107.889" stroke="#486078"/>
<path d="M245.333 105.667L243.11 105.667L240.888 105.667" stroke="#486078"/>
<path d="M276.444 114.556V116.778V119" stroke="#486078"/>
<path d="M278.666 116.778L276.444 116.778L274.222 116.778" stroke="#486078"/>
<path d="M265.333 97.8889V100.111V102.333" stroke="#486078"/>
<path d="M267.555 100.111L265.333 100.111L263.111 100.111" stroke="#486078"/>
<path d="M254.222 92.3334V94.5556V96.7778" stroke="#486078"/>
<path d="M256.444 94.5555L254.222 94.5555L251.999 94.5555" stroke="#486078"/>
<path d="M270.888 81.2222V83.4444V85.6666" stroke="#486078"/>
<path d="M273.111 83.4445L270.889 83.4445L268.666 83.4445" stroke="#486078"/>
<path d="M287.555 86.7777V88.9999V91.2222" stroke="#486078"/>
<path d="M289.777 89L287.555 89L285.333 89" stroke="#486078"/>
<path d="M56.9995 42.3334L56.9995 44.5556L56.9995 46.7778" stroke="#486078"/>
<path d="M54.7773 44.5555L56.9996 44.5555L59.2218 44.5555" stroke="#486078"/>
<path d="M113.111 81.2222L113.111 83.4444L113.111 85.6666" stroke="#486078"/>
<path d="M110.889 83.4445L113.111 83.4445L115.333 83.4445" stroke="#486078"/>
<path d="M79.7773 92.3334L79.7773 94.5556L79.7773 96.7778" stroke="#486078"/>
<path d="M77.5552 94.5555L79.7774 94.5555L81.9996 94.5555" stroke="#486078"/>
<path d="M90.8887 75.6666L90.8887 77.8888L90.8887 80.1111" stroke="#486078"/>
<path d="M88.666 77.8889L90.8882 77.8889L93.1105 77.8889" stroke="#486078"/>
<path d="M102 70.1111L102 72.3333L102 74.5555" stroke="#486078"/>
<path d="M99.7773 72.3334L102 72.3334L104.222 72.3334" stroke="#486078"/>
<path d="M85.333 59L85.333 61.2222L85.333 63.4444" stroke="#486078"/>
<path d="M83.1108 61.2222L85.3331 61.2222L87.5553 61.2222" stroke="#486078"/>
<path d="M68.666 64.5555L68.666 66.7778L68.666 69" stroke="#486078"/>
<path d="M66.4438 66.7777L68.6661 66.7777L70.8883 66.7777" stroke="#486078"/>
<path d="M54.7773 212.889L52.5551 212.889L50.3329 212.889" stroke="#486078"/>
<path d="M52.5552 215.111V212.889V210.667" stroke="#486078"/>
<path d="M15.8887 156.778L13.6665 156.778L11.4442 156.778" stroke="#486078"/>
<path d="M13.6665 159V156.778V154.556" stroke="#486078"/>
<path d="M4.77734 190.111L2.55512 190.111L0.332901 190.111" stroke="#486078"/>
<path d="M2.55566 192.333V190.111V187.889" stroke="#486078"/>
<path d="M21.4443 179L19.2221 179L16.9999 179" stroke="#486078"/>
<path d="M19.2217 181.222V179V176.778" stroke="#486078"/>
<path d="M27 167.889L24.7778 167.889L22.5556 167.889" stroke="#486078"/>
<path d="M24.7773 170.111V167.889V165.667" stroke="#486078"/>
<path d="M38.1108 184.556L35.8886 184.556L33.6664 184.556" stroke="#486078"/>
<path d="M35.8887 186.778V184.555V182.333" stroke="#486078"/>
<path d="M32.5552 201.222L30.333 201.222L28.1107 201.222" stroke="#486078"/>
<path d="M30.333 203.445V201.222V199" stroke="#486078"/>
<path d="M118.11 244.556L115.888 244.556L113.666 244.556" stroke="#486078"/>
<path d="M115.889 242.333V244.555V246.778" stroke="#486078"/>
<path d="M79.2217 300.667L76.9995 300.667L74.7772 300.667" stroke="#486078"/>
<path d="M76.9995 298.445V300.667V302.889" stroke="#486078"/>
<path d="M68.1104 267.333L65.8881 267.333L63.6659 267.333" stroke="#486078"/>
<path d="M65.8887 265.111V267.333V269.556" stroke="#486078"/>
<path d="M84.7773 278.445L82.5551 278.445L80.3329 278.445" stroke="#486078"/>
<path d="M82.5552 276.222V278.444V280.667" stroke="#486078"/>
<path d="M90.333 289.556L88.1108 289.556L85.8886 289.556" stroke="#486078"/>
<path d="M88.1104 287.333V289.555V291.778" stroke="#486078"/>
<path d="M101.444 272.889L99.2221 272.889L96.9999 272.889" stroke="#486078"/>
<path d="M99.2217 270.667V272.889V275.111" stroke="#486078"/>
<path d="M95.8887 256.222L93.6665 256.222L91.4442 256.222" stroke="#486078"/>
<path d="M93.666 254V256.222V258.444" stroke="#486078"/>
<path d="M177 58.4445L179.222 58.4445L181.444 58.4445" stroke="#486078"/>
<path d="M179.222 60.6666V58.4444V56.2222" stroke="#486078"/>
<path d="M215.889 2.33337L218.111 2.33337L220.333 2.33337" stroke="#486078"/>
<path d="M218.111 4.55554V2.33332V0.111099" stroke="#486078"/>
<path d="M227 35.6666L229.222 35.6666L231.444 35.6666" stroke="#486078"/>
<path d="M229.222 37.8889V35.6667V33.4445" stroke="#486078"/>
<path d="M210.333 24.5555L212.555 24.5555L214.777 24.5555" stroke="#486078"/>
<path d="M212.555 26.7777V24.5555V22.3333" stroke="#486078"/>
<path d="M204.778 13.4445L207 13.4445L209.222 13.4445" stroke="#486078"/>
<path d="M207 15.6666V13.4444V11.2222" stroke="#486078"/>
<path d="M193.667 30.1111L195.889 30.1111L198.111 30.1111" stroke="#486078"/>
<path d="M195.889 32.3334V30.1112V27.8889" stroke="#486078"/>
<path d="M199.222 46.7777L201.444 46.7777L203.667 46.7777" stroke="#486078"/>
<path d="M201.444 49V46.7778V44.5556" stroke="#486078"/>
<path d="M220.333 201.222L218.111 201.222L215.889 201.222" stroke="#486078"/>
<path d="M218.111 199V201.222V203.444" stroke="#486078"/>
<path d="M181.444 257.333L179.222 257.333L177 257.333" stroke="#486078"/>
<path d="M179.222 255.111V257.333V259.555" stroke="#486078"/>
<path d="M170.333 224L168.111 224L165.889 224" stroke="#486078"/>
<path d="M168.111 221.777V224V226.222" stroke="#486078"/>
<path d="M187 235.111L184.778 235.111L182.556 235.111" stroke="#486078"/>
<path d="M184.777 232.888V235.111V237.333" stroke="#486078"/>
<path d="M192.556 246.222L190.333 246.222L188.111 246.222" stroke="#486078"/>
<path d="M190.333 244V246.222V248.444" stroke="#486078"/>
<path d="M203.667 229.555L201.444 229.555L199.222 229.555" stroke="#486078"/>
<path d="M201.444 227.333V229.555V231.777" stroke="#486078"/>
<path d="M198.111 212.888L195.889 212.888L193.667 212.888" stroke="#486078"/>
<path d="M195.889 210.666V212.888V215.111" stroke="#486078"/>
</svg>
