<svg width="60" height="60" viewBox="0 0 60 60" fill="none" xmlns="http://www.w3.org/2000/svg">
<g opacity="0.5">
<path d="M30 59.5C13.7076 59.5 0.500002 46.2924 0.500003 30C0.500003 13.7076 13.7076 0.499998 30 0.499999C46.2924 0.499999 59.5 13.7076 59.5 30C59.5 46.2924 46.2924 59.5 30 59.5Z" stroke="transparent" stroke-opacity="0.8"/>
<path d="M30 59.5C13.7076 59.5 0.500002 46.2924 0.500003 30C0.500003 13.7076 13.7076 0.499998 30 0.499999C46.2924 0.499999 59.5 13.7076 59.5 30C59.5 46.2924 46.2924 59.5 30 59.5Z" stroke="url(#paint0_linear)"/>
</g>
<defs>
<linearGradient id="paint0_linear" x1="3.8147e-06" y1="-2.62268e-06" x2="26.7897" y2="72.3048" gradientUnits="userSpaceOnUse">
<stop stop-color="#F9312B" stop-opacity="0.8"/>
<stop offset="0.497848" stop-color="#F9312B" stop-opacity="0"/>
</linearGradient>
</defs>
</svg>
